<?xml version="1.0" encoding="utf-8" standalone="no"?>
<!DOCTYPE svg PUBLIC "-//W3C//DTD SVG 1.1//EN"
  "http://www.w3.org/Graphics/SVG/1.1/DTD/svg11.dtd">
<svg height="345.6pt" version="1.1" viewBox="0 0 460.8 345.6" width="460.8pt" xmlns="http://www.w3.org/2000/svg" xmlns:xlink="http://www.w3.org/1999/xlink">
 <metadata>
  <rdf:RDF xmlns:cc="http://creativecommons.org/ns#" xmlns:dc="http://purl.org/dc/elements/1.1/" xmlns:rdf="http://www.w3.org/1999/02/22-rdf-syntax-ns#">
   <cc:Work>
    <dc:type rdf:resource="http://purl.org/dc/dcmitype/StillImage"/>
    <dc:date>2021-06-09T17:42:50.202626</dc:date>
    <dc:format>image/svg+xml</dc:format>
    <dc:creator>
     <cc:Agent>
      <dc:title>Matplotlib v3.4.2, https://matplotlib.org/</dc:title>
     </cc:Agent>
    </dc:creator>
   </cc:Work>
  </rdf:RDF>
 </metadata>
 <defs>
  <style type="text/css">*{stroke-linecap:butt;stroke-linejoin:round;}</style>
 </defs>
 <g id="figure_1">
  <g id="patch_1">
   <path d="M 0 345.6 
L 460.8 345.6 
L 460.8 0 
L 0 0 
z
" style="fill:#ffffff;"/>
  </g>
  <g id="axes_1">
   <g id="patch_2">
    <path d="M 57.6 307.584 
L 414.72 307.584 
L 414.72 41.472 
L 57.6 41.472 
z
" style="fill:#ffffff;"/>
   </g>
   <g id="line2d_1">
    <path clip-path="url(#pf77e86c5a6)" d="M 130.32 295.488 
L 115.2 295.488 
M 145.44 295.488 
L 130.32 295.488 
M 160.56 295.488 
L 145.44 295.488 
M 175.68 295.488 
L 160.56 295.488 
M 190.8 295.488 
L 175.68 295.488 
M 205.92 295.488 
L 190.8 295.488 
M 221.04 295.488 
L 205.92 295.488 
M 236.16 295.488 
L 221.04 295.488 
M 251.28 295.488 
L 236.16 295.488 
M 266.4 295.488 
L 251.28 295.488 
M 281.52 295.488 
L 266.4 295.488 
M 296.64 295.488 
L 281.52 295.488 
M 311.76 295.488 
L 296.64 295.488 
M 326.88 295.488 
L 311.76 295.488 
M 342 295.488 
L 357.12 295.488 
M 342 295.488 
L 326.88 295.488 
M 357.12 280.368 
L 357.12 295.488 
M 357.12 265.248 
L 357.12 280.368 
M 357.12 250.128 
L 357.12 265.248 
M 357.12 235.008 
L 357.12 250.128 
M 357.12 219.888 
L 357.12 235.008 
M 357.12 204.768 
L 357.12 219.888 
M 357.12 189.648 
L 357.12 204.768 
M 357.12 174.528 
L 357.12 189.648 
M 357.12 159.408 
L 357.12 174.528 
M 357.12 144.288 
L 357.12 159.408 
M 357.12 129.168 
L 357.12 144.288 
M 357.12 114.048 
L 357.12 129.168 
M 357.12 98.928 
L 357.12 114.048 
M 357.12 83.808 
L 357.12 98.928 
M 357.12 68.688 
L 357.12 53.568 
M 357.12 68.688 
L 357.12 83.808 
M 342 53.568 
L 357.12 53.568 
M 326.88 53.568 
L 342 53.568 
M 311.76 53.568 
L 326.88 53.568 
M 296.64 53.568 
L 311.76 53.568 
M 281.52 53.568 
L 296.64 53.568 
M 266.4 53.568 
L 281.52 53.568 
M 251.28 53.568 
L 266.4 53.568 
M 236.16 53.568 
L 251.28 53.568 
M 221.04 53.568 
L 236.16 53.568 
M 205.92 53.568 
L 221.04 53.568 
M 190.8 53.568 
L 205.92 53.568 
M 175.68 53.568 
L 190.8 53.568 
M 160.56 53.568 
L 175.68 53.568 
M 145.44 53.568 
L 160.56 53.568 
M 130.32 53.568 
L 115.2 53.568 
M 130.32 53.568 
L 145.44 53.568 
M 115.2 68.688 
L 115.2 53.568 
M 115.2 83.808 
L 115.2 68.688 
M 115.2 98.928 
L 115.2 83.808 
M 115.2 114.048 
L 115.2 98.928 
M 115.2 129.168 
L 115.2 114.048 
M 115.2 144.288 
L 115.2 129.168 
M 115.2 159.408 
L 115.2 144.288 
M 115.2 174.528 
L 115.2 159.408 
M 115.2 189.648 
L 115.2 174.528 
M 115.2 204.768 
L 115.2 189.648 
M 115.2 219.888 
L 115.2 204.768 
M 115.2 235.008 
L 115.2 219.888 
M 115.2 250.128 
L 115.2 235.008 
M 115.2 265.248 
L 115.2 250.128 
M 115.2 280.368 
L 115.2 295.488 
M 115.2 280.368 
L 115.2 265.248 
M 342.702639 165.752741 
L 357.12 174.528 
M 342.702639 165.752741 
L 357.12 159.408 
M 228.6 66.662304 
L 236.16 53.568 
M 228.6 66.662304 
L 221.04 53.568 
M 128.520791 182.017113 
L 115.2 174.528 
M 128.520791 182.017113 
L 115.2 189.648 
M 243.72 282.393696 
L 236.16 295.488 
M 243.72 282.393696 
L 251.28 295.488 
M 342.755987 214.431236 
L 357.12 219.888 
M 342.755987 214.431236 
L 357.12 204.768 
M 198.36 282.393696 
L 190.8 295.488 
M 198.36 282.393696 
L 205.92 295.488 
M 273.96 66.662304 
L 281.52 53.568 
M 273.96 66.662304 
L 266.4 53.568 
M 129.614599 137.641357 
L 115.2 129.168 
M 129.614599 137.641357 
L 115.2 144.288 
M 289.08 282.393696 
L 281.52 295.488 
M 289.08 282.393696 
L 296.64 295.488 
M 128.69245 226.545144 
L 115.2 219.888 
M 128.69245 226.545144 
L 115.2 235.008 
M 344.256396 121.208415 
L 357.12 129.168 
M 344.256396 121.208415 
L 357.12 114.048 
M 185.278041 68.050677 
L 190.8 53.568 
M 185.278041 68.050677 
L 175.68 53.568 
M 343.726711 242.760915 
L 357.12 250.128 
M 343.726711 242.760915 
L 357.12 235.008 
M 168.12 282.393696 
L 160.56 295.488 
M 168.12 282.393696 
L 175.68 295.488 
M 128.294304 106.488 
L 115.2 98.928 
M 128.294304 106.488 
L 115.2 114.048 
M 302.161959 68.050677 
L 311.76 53.568 
M 302.161959 68.050677 
L 296.64 53.568 
M 128.751997 258.999292 
L 115.2 250.128 
M 128.751997 258.999292 
L 115.2 265.248 
M 319.635481 282.54346 
L 311.76 295.488 
M 319.635481 282.54346 
L 326.88 295.488 
M 343.964026 91.774785 
L 357.12 98.928 
M 343.964026 91.774785 
L 357.12 83.808 
M 153 66.662304 
L 160.56 53.568 
M 153 66.662304 
L 145.44 53.568 
M 343.876671 270.891744 
L 357.12 280.368 
M 343.876671 270.891744 
L 357.12 265.248 
M 137.944069 282.684807 
L 130.32 295.488 
M 137.944069 282.684807 
L 145.44 295.488 
M 334.336277 65.172726 
L 342 53.568 
M 334.336277 65.172726 
L 326.88 53.568 
M 128.003193 76.312069 
L 115.2 68.688 
M 128.003193 76.312069 
L 115.2 83.808 
M 273.96 282.393696 
L 266.4 295.488 
M 273.96 282.393696 
L 281.52 295.488 
M 273.96 282.393696 
L 289.08 282.393696 
M 281.52 269.299392 
L 289.08 282.393696 
M 281.52 269.299392 
L 273.96 282.393696 
M 296.64 269.299392 
L 289.08 282.393696 
M 296.64 269.299392 
L 281.52 269.299392 
M 289.08 256.205088 
L 281.52 269.299392 
M 289.08 256.205088 
L 296.64 269.299392 
M 273.96 256.205088 
L 281.52 269.299392 
M 273.96 256.205088 
L 289.08 256.205088 
M 281.52 243.110784 
L 289.08 256.205088 
M 281.52 243.110784 
L 273.96 256.205088 
M 266.4 243.110784 
L 273.96 256.205088 
M 266.4 243.110784 
L 281.52 243.110784 
M 273.96 230.016479 
L 281.52 243.110784 
M 273.96 230.016479 
L 266.4 243.110784 
M 258.84 230.016479 
L 266.4 243.110784 
M 258.84 230.016479 
L 273.96 230.016479 
M 266.4 216.922175 
L 273.96 230.016479 
M 266.4 216.922175 
L 258.84 230.016479 
M 251.28 216.922175 
L 258.84 230.016479 
M 251.28 216.922175 
L 266.4 216.922175 
M 258.84 203.827871 
L 266.4 216.922175 
M 258.84 203.827871 
L 251.28 216.922175 
M 243.72 203.827871 
L 251.28 216.922175 
M 243.72 203.827871 
L 258.84 203.827871 
M 251.28 190.733567 
L 258.84 203.827871 
M 251.28 190.733567 
L 243.72 203.827871 
M 236.16 190.733567 
L 243.72 203.827871 
M 236.16 190.733567 
L 251.28 190.733567 
M 243.72 177.639263 
L 251.28 190.733567 
M 243.72 177.639263 
L 236.16 190.733567 
M 228.6 177.639263 
L 236.16 190.733567 
M 228.6 177.639263 
L 243.72 177.639263 
M 228.6 203.827871 
L 243.72 203.827871 
M 228.6 203.827871 
L 236.16 190.733567 
M 236.16 164.544959 
L 243.72 177.639263 
M 236.16 164.544959 
L 228.6 177.639263 
M 251.28 164.544959 
L 243.72 177.639263 
M 251.28 164.544959 
L 236.16 164.544959 
M 221.04 164.544959 
L 228.6 177.639263 
M 221.04 164.544959 
L 236.16 164.544959 
M 243.72 151.450655 
L 236.16 164.544959 
M 243.72 151.450655 
L 251.28 164.544959 
M 258.84 151.450655 
L 251.28 164.544959 
M 258.84 151.450655 
L 243.72 151.450655 
M 273.96 203.827871 
L 266.4 216.922175 
M 273.96 203.827871 
L 258.84 203.827871 
M 251.28 138.356351 
L 243.72 151.450655 
M 251.28 138.356351 
L 258.84 151.450655 
M 266.4 138.356351 
L 258.84 151.450655 
M 266.4 138.356351 
L 251.28 138.356351 
M 273.96 151.450655 
L 258.84 151.450655 
M 273.96 151.450655 
L 266.4 138.356351 
M 243.72 230.016479 
L 258.84 230.016479 
M 243.72 230.016479 
L 251.28 216.922175 
M 236.16 138.356351 
L 243.72 151.450655 
M 236.16 138.356351 
L 251.28 138.356351 
M 213.48 177.639263 
L 228.6 177.639263 
M 213.48 177.639263 
L 221.04 164.544959 
M 205.92 164.544959 
L 221.04 164.544959 
M 205.92 164.544959 
L 213.48 177.639263 
M 198.36 177.639263 
L 213.48 177.639263 
M 198.36 177.639263 
L 205.92 164.544959 
M 190.8 164.544959 
L 205.92 164.544959 
M 190.8 164.544959 
L 198.36 177.639263 
M 198.36 151.450655 
L 205.92 164.544959 
M 198.36 151.450655 
L 190.8 164.544959 
M 281.52 138.356351 
L 266.4 138.356351 
M 281.52 138.356351 
L 273.96 151.450655 
M 258.84 125.262047 
L 251.28 138.356351 
M 258.84 125.262047 
L 266.4 138.356351 
M 183.24 177.639263 
L 198.36 177.639263 
M 183.24 177.639263 
L 190.8 164.544959 
M 190.8 190.733567 
L 198.36 177.639263 
M 190.8 190.733567 
L 183.24 177.639263 
M 289.08 230.016479 
L 281.52 243.110784 
M 289.08 230.016479 
L 273.96 230.016479 
M 289.08 151.450655 
L 273.96 151.450655 
M 289.08 151.450655 
L 281.52 138.356351 
M 183.24 151.450655 
L 190.8 164.544959 
M 183.24 151.450655 
L 198.36 151.450655 
M 190.8 138.356351 
L 198.36 151.450655 
M 190.8 138.356351 
L 183.24 151.450655 
M 175.68 190.733567 
L 183.24 177.639263 
M 175.68 190.733567 
L 190.8 190.733567 
M 183.24 203.827871 
L 190.8 190.733567 
M 183.24 203.827871 
L 175.68 190.733567 
M 296.64 138.356351 
L 281.52 138.356351 
M 296.64 138.356351 
L 289.08 151.450655 
M 289.08 125.262047 
L 281.52 138.356351 
M 289.08 125.262047 
L 296.64 138.356351 
M 175.68 138.356351 
L 183.24 151.450655 
M 175.68 138.356351 
L 190.8 138.356351 
M 183.24 125.262047 
L 190.8 138.356351 
M 183.24 125.262047 
L 175.68 138.356351 
M 168.12 151.450655 
L 183.24 151.450655 
M 168.12 151.450655 
L 175.68 138.356351 
M 198.36 125.262047 
L 190.8 138.356351 
M 198.36 125.262047 
L 183.24 125.262047 
M 191.594718 112.626573 
L 183.24 125.262047 
M 191.594718 112.626573 
L 198.36 125.262047 
M 206.052453 112.244214 
L 198.36 125.262047 
M 206.052453 112.244214 
L 191.594718 112.626573 
M 176.977295 111.458795 
L 183.24 125.262047 
M 176.977295 111.458795 
L 191.594718 112.626573 
M 168.12 203.827871 
L 175.68 190.733567 
M 168.12 203.827871 
L 183.24 203.827871 
M 175.68 216.922175 
L 183.24 203.827871 
M 175.68 216.922175 
L 168.12 203.827871 
M 190.8 216.922175 
L 183.24 203.827871 
M 190.8 216.922175 
L 175.68 216.922175 
M 183.24 230.016479 
L 175.68 216.922175 
M 183.24 230.016479 
L 190.8 216.922175 
M 198.36 230.016479 
L 190.8 216.922175 
M 198.36 230.016479 
L 183.24 230.016479 
M 168.12 230.016479 
L 175.68 216.922175 
M 168.12 230.016479 
L 183.24 230.016479 
M 304.2 151.450655 
L 289.08 151.450655 
M 304.2 151.450655 
L 296.64 138.356351 
M 296.64 164.544959 
L 289.08 151.450655 
M 296.64 164.544959 
L 304.2 151.450655 
M 304.422082 256.343719 
L 296.64 269.299392 
M 304.422082 256.343719 
L 289.08 256.205088 
M 304.2 125.262047 
L 296.64 138.356351 
M 304.2 125.262047 
L 289.08 125.262047 
M 296.64 112.167743 
L 289.08 125.262047 
M 296.64 112.167743 
L 304.2 125.262047 
M 175.68 243.110784 
L 183.24 230.016479 
M 175.68 243.110784 
L 168.12 230.016479 
M 312.435232 112.481119 
L 304.2 125.262047 
M 312.435232 112.481119 
L 296.64 112.167743 
M 199.309247 99.621486 
L 191.594718 112.626573 
M 199.309247 99.621486 
L 206.052453 112.244214 
M 213.660283 99.177525 
L 206.052453 112.244214 
M 213.660283 99.177525 
L 199.309247 99.621486 
M 160.56 243.110784 
L 168.12 230.016479 
M 160.56 243.110784 
L 175.68 243.110784 
M 160.56 190.733567 
L 175.68 190.733567 
M 160.56 190.733567 
L 168.12 203.827871 
M 153 203.827871 
L 168.12 203.827871 
M 153 203.827871 
L 160.56 190.733567 
M 160.56 138.356351 
L 175.68 138.356351 
M 160.56 138.356351 
L 168.12 151.450655 
M 153 151.450655 
L 168.12 151.450655 
M 153 151.450655 
L 160.56 138.356351 
M 311.76 164.544959 
L 304.2 151.450655 
M 311.76 164.544959 
L 296.64 164.544959 
M 304.2 177.639263 
L 296.64 164.544959 
M 304.2 177.639263 
L 311.76 164.544959 
M 319.32 151.450655 
L 304.2 151.450655 
M 319.32 151.450655 
L 311.76 164.544959 
M 206.108255 86.087823 
L 199.309247 99.621486 
M 206.108255 86.087823 
L 213.660283 99.177525 
M 304.454824 98.311304 
L 296.64 112.167743 
M 304.454824 98.311304 
L 312.435232 112.481119 
M 289.122471 98.946416 
L 296.64 112.167743 
M 289.122471 98.946416 
L 304.454824 98.311304 
M 258.84 256.205088 
L 273.96 256.205088 
M 258.84 256.205088 
L 266.4 243.110784 
M 221.066593 112.183096 
L 206.052453 112.244214 
M 221.066593 112.183096 
L 213.660283 99.177525 
M 228.634479 99.093345 
L 213.660283 99.177525 
M 228.634479 99.093345 
L 221.066593 112.183096 
M 289.08 177.639263 
L 296.64 164.544959 
M 289.08 177.639263 
L 304.2 177.639263 
M 296.64 190.733567 
L 304.2 177.639263 
M 296.64 190.733567 
L 289.08 177.639263 
M 311.76 190.733567 
L 304.2 177.639263 
M 311.76 190.733567 
L 296.64 190.733567 
M 304.2 203.827871 
L 296.64 190.733567 
M 304.2 203.827871 
L 311.76 190.733567 
M 319.629788 125.70277 
L 304.2 125.262047 
M 319.629788 125.70277 
L 312.435232 112.481119 
M 319.048608 203.984559 
L 311.76 190.733567 
M 319.048608 203.984559 
L 304.2 203.827871 
M 311.714768 216.94829 
L 304.2 203.827871 
M 311.714768 216.94829 
L 319.048608 203.984559 
M 329.04113 190.40328 
L 311.76 190.733567 
M 329.04113 190.40328 
L 319.048608 203.984559 
M 160.56 164.544959 
L 168.12 151.450655 
M 160.56 164.544959 
L 153 151.450655 
M 236.163709 112.169884 
L 221.066593 112.183096 
M 236.163709 112.169884 
L 228.634479 99.093345 
M 243.726365 99.077113 
L 228.634479 99.093345 
M 243.726365 99.077113 
L 236.163709 112.169884 
M 205.92 216.922175 
L 190.8 216.922175 
M 205.92 216.922175 
L 198.36 230.016479 
M 213.48 230.016479 
L 198.36 230.016479 
M 213.48 230.016479 
L 205.92 216.922175 
M 205.92 243.110784 
L 198.36 230.016479 
M 205.92 243.110784 
L 213.48 230.016479 
M 221.04 243.110784 
L 213.48 230.016479 
M 221.04 243.110784 
L 205.92 243.110784 
M 213.48 256.205088 
L 205.92 243.110784 
M 213.48 256.205088 
L 221.04 243.110784 
M 228.6 256.205088 
L 221.04 243.110784 
M 228.6 256.205088 
L 213.48 256.205088 
M 198.36 256.205088 
L 205.92 243.110784 
M 198.36 256.205088 
L 213.48 256.205088 
M 221.04 269.299392 
L 213.48 256.205088 
M 221.04 269.299392 
L 228.6 256.205088 
M 168.12 256.205088 
L 175.68 243.110784 
M 168.12 256.205088 
L 160.56 243.110784 
M 319.32 99.073438 
L 312.435232 112.481119 
M 319.32 99.073438 
L 304.454824 98.311304 
M 153.438576 255.951876 
L 160.56 243.110784 
M 153.438576 255.951876 
L 168.12 256.205088 
M 153.414085 230.255552 
L 168.12 230.016479 
M 153.414085 230.255552 
L 160.56 243.110784 
M 145.79729 164.338677 
L 153 151.450655 
M 145.79729 164.338677 
L 160.56 164.544959 
M 190.124725 86.517404 
L 185.278041 68.050677 
M 190.124725 86.517404 
L 199.309247 99.621486 
M 190.124725 86.517404 
L 206.108255 86.087823 
M 296.5344 84.7161 
L 302.161959 68.050677 
M 296.5344 84.7161 
L 304.454824 98.311304 
M 296.5344 84.7161 
L 289.122471 98.946416 
M 281.509479 86.566669 
L 289.122471 98.946416 
M 281.509479 86.566669 
L 296.5344 84.7161 
M 273.965325 99.15019 
L 289.122471 98.946416 
M 273.965325 99.15019 
L 281.509479 86.566669 
M 266.399134 86.909059 
L 281.509479 86.566669 
M 266.399134 86.909059 
L 273.965325 99.15019 
M 236.166807 86.802275 
L 228.634479 99.093345 
M 236.166807 86.802275 
L 243.726365 99.077113 
M 142.899357 189.993153 
L 128.520791 182.017113 
M 142.899357 189.993153 
L 160.56 190.733567 
M 142.899357 189.993153 
L 153 203.827871 
M 138.866601 203.905362 
L 153 203.827871 
M 138.866601 203.905362 
L 142.899357 189.993153 
M 326.88 216.922175 
L 342.755987 214.431236 
M 326.88 216.922175 
L 319.048608 203.984559 
M 326.88 216.922175 
L 311.714768 216.94829 
M 319.312461 230.020832 
L 311.714768 216.94829 
M 319.312461 230.020832 
L 326.88 216.922175 
M 138.242562 151.363333 
L 129.614599 137.641357 
M 138.242562 151.363333 
L 153 151.450655 
M 138.242562 151.363333 
L 145.79729 164.338677 
M 326.88 164.544959 
L 342.702639 165.752741 
M 326.88 164.544959 
L 311.76 164.544959 
M 326.88 164.544959 
L 319.32 151.450655 
M 334.44 151.450655 
L 342.702639 165.752741 
M 334.44 151.450655 
L 319.32 151.450655 
M 334.44 151.450655 
L 326.88 164.544959 
M 198.670204 75.057555 
L 185.278041 68.050677 
M 198.670204 75.057555 
L 206.108255 86.087823 
M 198.670204 75.057555 
L 190.124725 86.517404 
M 174.02311 81.624678 
L 185.278041 68.050677 
M 174.02311 81.624678 
L 190.124725 86.517404 
M 286.200973 74.257147 
L 273.96 66.662304 
M 286.200973 74.257147 
L 302.161959 68.050677 
M 286.200973 74.257147 
L 296.5344 84.7161 
M 286.200973 74.257147 
L 281.509479 86.566669 
M 313.272842 81.842399 
L 302.161959 68.050677 
M 313.272842 81.842399 
L 304.454824 98.311304 
M 313.272842 81.842399 
L 319.32 99.073438 
M 313.272842 81.842399 
L 296.5344 84.7161 
M 330.192041 87.227932 
L 343.964026 91.774785 
M 330.192041 87.227932 
L 319.32 99.073438 
M 330.192041 87.227932 
L 313.272842 81.842399 
M 176.650106 96.269724 
L 176.977295 111.458795 
M 176.650106 96.269724 
L 190.124725 86.517404 
M 176.650106 96.269724 
L 174.02311 81.624678 
M 164.287966 92.079736 
L 174.02311 81.624678 
M 164.287966 92.079736 
L 176.650106 96.269724 
M 213.551208 73.582999 
L 228.6 66.662304 
M 213.551208 73.582999 
L 206.108255 86.087823 
M 213.551208 73.582999 
L 198.670204 75.057555 
M 129.752552 165.700671 
L 115.2 159.408 
M 129.752552 165.700671 
L 115.2 174.528 
M 129.752552 165.700671 
L 128.520791 182.017113 
M 129.752552 165.700671 
L 145.79729 164.338677 
M 129.752552 165.700671 
L 138.242562 151.363333 
M 334.417348 229.373035 
L 342.755987 214.431236 
M 334.417348 229.373035 
L 343.726711 242.760915 
M 334.417348 229.373035 
L 326.88 216.922175 
M 334.417348 229.373035 
L 319.312461 230.020832 
M 327.07333 243.091906 
L 343.726711 242.760915 
M 327.07333 243.091906 
L 319.312461 230.020832 
M 327.07333 243.091906 
L 334.417348 229.373035 
M 335.620895 256.390424 
L 343.726711 242.760915 
M 335.620895 256.390424 
L 343.876671 270.891744 
M 335.620895 256.390424 
L 327.07333 243.091906 
M 320.652494 257.036874 
L 304.422082 256.343719 
M 320.652494 257.036874 
L 327.07333 243.091906 
M 320.652494 257.036874 
L 335.620895 256.390424 
M 328.385149 269.708476 
L 319.635481 282.54346 
M 328.385149 269.708476 
L 343.876671 270.891744 
M 328.385149 269.708476 
L 335.620895 256.390424 
M 328.385149 269.708476 
L 320.652494 257.036874 
M 319.287262 66.160219 
L 326.88 53.568 
M 319.287262 66.160219 
L 311.76 53.568 
M 319.287262 66.160219 
L 302.161959 68.050677 
M 319.287262 66.160219 
L 334.336277 65.172726 
M 319.287262 66.160219 
L 313.272842 81.842399 
M 167.32642 67.379605 
L 175.68 53.568 
M 167.32642 67.379605 
L 160.56 53.568 
M 167.32642 67.379605 
L 185.278041 68.050677 
M 167.32642 67.379605 
L 153 66.662304 
M 167.32642 67.379605 
L 174.02311 81.624678 
M 304.191205 230.021557 
L 289.08 230.016479 
M 304.191205 230.021557 
L 311.714768 216.94829 
M 304.191205 230.021557 
L 319.312461 230.020832 
M 289.08 203.827871 
L 273.96 203.827871 
M 289.08 203.827871 
L 296.64 190.733567 
M 289.08 203.827871 
L 304.2 203.827871 
M 312.16181 269.481447 
L 319.635481 282.54346 
M 312.16181 269.481447 
L 296.64 269.299392 
M 312.16181 269.481447 
L 304.422082 256.343719 
M 312.16181 269.481447 
L 320.652494 257.036874 
M 312.16181 269.481447 
L 328.385149 269.708476 
M 143.221933 218.048685 
L 128.69245 226.545144 
M 143.221933 218.048685 
L 153 203.827871 
M 143.221933 218.048685 
L 153.414085 230.255552 
M 143.221933 218.048685 
L 138.866601 203.905362 
M 251.281199 112.168435 
L 258.84 125.262047 
M 251.281199 112.168435 
L 236.163709 112.169884 
M 251.281199 112.168435 
L 243.726365 99.077113 
M 145.736928 138.474039 
L 129.614599 137.641357 
M 145.736928 138.474039 
L 160.56 138.356351 
M 145.736928 138.474039 
L 153 151.450655 
M 145.736928 138.474039 
L 138.242562 151.363333 
M 153.244104 123.494923 
L 160.56 138.356351 
M 153.244104 123.494923 
L 145.736928 138.474039 
M 258.84 282.393696 
L 251.28 295.488 
M 258.84 282.393696 
L 266.4 295.488 
M 258.84 282.393696 
L 243.72 282.393696 
M 258.84 282.393696 
L 273.96 282.393696 
M 251.28 269.299392 
L 243.72 282.393696 
M 251.28 269.299392 
L 258.84 256.205088 
M 251.28 269.299392 
L 258.84 282.393696 
M 342.738358 137.584273 
L 357.12 144.288 
M 342.738358 137.584273 
L 357.12 129.168 
M 342.738358 137.584273 
L 344.256396 121.208415 
M 342.738358 137.584273 
L 334.44 151.450655 
M 168.12 177.639263 
L 183.24 177.639263 
M 168.12 177.639263 
L 175.68 190.733567 
M 168.12 177.639263 
L 160.56 190.733567 
M 168.12 177.639263 
L 160.56 164.544959 
M 304.285392 282.433198 
L 296.64 295.488 
M 304.285392 282.433198 
L 311.76 295.488 
M 304.285392 282.433198 
L 289.08 282.393696 
M 304.285392 282.433198 
L 319.635481 282.54346 
M 304.285392 282.433198 
L 296.64 269.299392 
M 304.285392 282.433198 
L 312.16181 269.481447 
M 266.4 190.733567 
L 258.84 203.827871 
M 266.4 190.733567 
L 251.28 190.733567 
M 266.4 190.733567 
L 273.96 203.827871 
M 281.52 190.733567 
L 273.96 203.827871 
M 281.52 190.733567 
L 289.08 177.639263 
M 281.52 190.733567 
L 296.64 190.733567 
M 281.52 190.733567 
L 289.08 203.827871 
M 281.52 190.733567 
L 266.4 190.733567 
M 273.96 177.639263 
L 289.08 177.639263 
M 273.96 177.639263 
L 266.4 190.733567 
M 273.96 177.639263 
L 281.52 190.733567 
M 319.32 177.639263 
L 311.76 164.544959 
M 319.32 177.639263 
L 304.2 177.639263 
M 319.32 177.639263 
L 311.76 190.733567 
M 319.32 177.639263 
L 329.04113 190.40328 
M 319.32 177.639263 
L 326.88 164.544959 
M 153 177.639263 
L 160.56 190.733567 
M 153 177.639263 
L 160.56 164.544959 
M 153 177.639263 
L 145.79729 164.338677 
M 153 177.639263 
L 142.899357 189.993153 
M 153 177.639263 
L 168.12 177.639263 
M 213.48 282.393696 
L 205.92 295.488 
M 213.48 282.393696 
L 221.04 295.488 
M 213.48 282.393696 
L 198.36 282.393696 
M 213.48 282.393696 
L 221.04 269.299392 
M 130.594345 242.84685 
L 115.2 235.008 
M 130.594345 242.84685 
L 115.2 250.128 
M 130.594345 242.84685 
L 128.69245 226.545144 
M 130.594345 242.84685 
L 128.751997 258.999292 
M 258.84 177.639263 
L 251.28 190.733567 
M 258.84 177.639263 
L 243.72 177.639263 
M 258.84 177.639263 
L 251.28 164.544959 
M 258.84 177.639263 
L 266.4 190.733567 
M 258.84 177.639263 
L 273.96 177.639263 
M 281.52 164.544959 
L 273.96 151.450655 
M 281.52 164.544959 
L 289.08 151.450655 
M 281.52 164.544959 
L 296.64 164.544959 
M 281.52 164.544959 
L 289.08 177.639263 
M 281.52 164.544959 
L 273.96 177.639263 
M 128.294304 121.608 
L 115.2 114.048 
M 128.294304 121.608 
L 115.2 129.168 
M 128.294304 121.608 
L 129.614599 137.641357 
M 128.294304 121.608 
L 128.294304 106.488 
M 141.388608 114.048 
L 128.294304 106.488 
M 141.388608 114.048 
L 153.244104 123.494923 
M 141.388608 114.048 
L 128.294304 121.608 
M 140.97151 99.139165 
L 128.294304 106.488 
M 140.97151 99.139165 
L 141.388608 114.048 
M 154.395374 105.796236 
L 164.287966 92.079736 
M 154.395374 105.796236 
L 153.244104 123.494923 
M 154.395374 105.796236 
L 141.388608 114.048 
M 154.395374 105.796236 
L 140.97151 99.139165 
M 251.282051 86.271924 
L 243.726365 99.077113 
M 251.282051 86.271924 
L 266.399134 86.909059 
M 251.282051 86.271924 
L 236.166807 86.802275 
M 241.201476 75.361411 
L 228.6 66.662304 
M 241.201476 75.361411 
L 236.166807 86.802275 
M 241.201476 75.361411 
L 251.282051 86.271924 
M 258.48038 73.785554 
L 273.96 66.662304 
M 258.48038 73.785554 
L 266.399134 86.909059 
M 258.48038 73.785554 
L 251.282051 86.271924 
M 258.48038 73.785554 
L 241.201476 75.361411 
M 344.025696 197.208 
L 357.12 204.768 
M 344.025696 197.208 
L 357.12 189.648 
M 344.025696 197.208 
L 342.755987 214.431236 
M 344.025696 197.208 
L 329.04113 190.40328 
M 343.805642 182.256285 
L 357.12 189.648 
M 343.805642 182.256285 
L 357.12 174.528 
M 343.805642 182.256285 
L 342.702639 165.752741 
M 343.805642 182.256285 
L 329.04113 190.40328 
M 343.805642 182.256285 
L 344.025696 197.208 
M 251.28 243.110784 
L 266.4 243.110784 
M 251.28 243.110784 
L 258.84 230.016479 
M 251.28 243.110784 
L 243.72 230.016479 
M 251.28 243.110784 
L 258.84 256.205088 
M 258.842346 99.290744 
L 243.726365 99.077113 
M 258.842346 99.290744 
L 273.965325 99.15019 
M 258.842346 99.290744 
L 266.399134 86.909059 
M 258.842346 99.290744 
L 251.281199 112.168435 
M 258.842346 99.290744 
L 251.282051 86.271924 
M 183.24 282.393696 
L 175.68 295.488 
M 183.24 282.393696 
L 190.8 295.488 
M 183.24 282.393696 
L 198.36 282.393696 
M 183.24 282.393696 
L 168.12 282.393696 
M 190.8 269.299392 
L 198.36 282.393696 
M 190.8 269.299392 
L 198.36 256.205088 
M 190.8 269.299392 
L 183.24 282.393696 
M 344.370154 106.4892 
L 357.12 114.048 
M 344.370154 106.4892 
L 357.12 98.928 
M 344.370154 106.4892 
L 344.256396 121.208415 
M 344.370154 106.4892 
L 343.964026 91.774785 
M 329.308039 112.950491 
L 344.256396 121.208415 
M 329.308039 112.950491 
L 312.435232 112.481119 
M 329.308039 112.950491 
L 319.629788 125.70277 
M 329.308039 112.950491 
L 319.32 99.073438 
M 329.308039 112.950491 
L 344.370154 106.4892 
M 221.04 190.733567 
L 236.16 190.733567 
M 221.04 190.733567 
L 228.6 177.639263 
M 221.04 190.733567 
L 228.6 203.827871 
M 221.04 190.733567 
L 213.48 177.639263 
M 205.92 190.733567 
L 213.48 177.639263 
M 205.92 190.733567 
L 198.36 177.639263 
M 205.92 190.733567 
L 190.8 190.733567 
M 205.92 190.733567 
L 221.04 190.733567 
M 205.92 138.356351 
L 198.36 151.450655 
M 205.92 138.356351 
L 190.8 138.356351 
M 205.92 138.356351 
L 198.36 125.262047 
M 213.506508 125.277351 
L 198.36 125.262047 
M 213.506508 125.277351 
L 206.052453 112.244214 
M 213.506508 125.277351 
L 221.066593 112.183096 
M 213.506508 125.277351 
L 205.92 138.356351 
M 153.010678 282.442214 
L 145.44 295.488 
M 153.010678 282.442214 
L 160.56 295.488 
M 153.010678 282.442214 
L 168.12 282.393696 
M 153.010678 282.442214 
L 137.944069 282.684807 
M 281.52 216.922175 
L 273.96 230.016479 
M 281.52 216.922175 
L 266.4 216.922175 
M 281.52 216.922175 
L 273.96 203.827871 
M 281.52 216.922175 
L 289.08 230.016479 
M 281.52 216.922175 
L 289.08 203.827871 
M 243.720818 125.262519 
L 251.28 138.356351 
M 243.720818 125.262519 
L 236.16 138.356351 
M 243.720818 125.262519 
L 258.84 125.262047 
M 243.720818 125.262519 
L 236.163709 112.169884 
M 243.720818 125.262519 
L 251.281199 112.168435 
M 266.401478 112.216868 
L 258.84 125.262047 
M 266.401478 112.216868 
L 273.965325 99.15019 
M 266.401478 112.216868 
L 251.281199 112.168435 
M 266.401478 112.216868 
L 258.842346 99.290744 
M 281.528212 112.167552 
L 289.08 125.262047 
M 281.528212 112.167552 
L 296.64 112.167743 
M 281.528212 112.167552 
L 289.122471 98.946416 
M 281.528212 112.167552 
L 273.965325 99.15019 
M 281.528212 112.167552 
L 266.401478 112.216868 
M 168.686212 125.332333 
L 175.68 138.356351 
M 168.686212 125.332333 
L 183.24 125.262047 
M 168.686212 125.332333 
L 176.977295 111.458795 
M 168.686212 125.332333 
L 160.56 138.356351 
M 168.686212 125.332333 
L 153.244104 123.494923 
M 312.048595 243.270945 
L 304.422082 256.343719 
M 312.048595 243.270945 
L 319.312461 230.020832 
M 312.048595 243.270945 
L 327.07333 243.091906 
M 312.048595 243.270945 
L 320.652494 257.036874 
M 312.048595 243.270945 
L 304.191205 230.021557 
M 228.6025 125.26349 
L 236.16 138.356351 
M 228.6025 125.26349 
L 221.066593 112.183096 
M 228.6025 125.26349 
L 236.163709 112.169884 
M 228.6025 125.26349 
L 213.506508 125.277351 
M 228.6025 125.26349 
L 243.720818 125.262519 
M 175.68 164.544959 
L 190.8 164.544959 
M 175.68 164.544959 
L 183.24 177.639263 
M 175.68 164.544959 
L 183.24 151.450655 
M 175.68 164.544959 
L 168.12 151.450655 
M 175.68 164.544959 
L 160.56 164.544959 
M 175.68 164.544959 
L 168.12 177.639263 
M 266.4 164.544959 
L 251.28 164.544959 
M 266.4 164.544959 
L 258.84 151.450655 
M 266.4 164.544959 
L 273.96 151.450655 
M 266.4 164.544959 
L 273.96 177.639263 
M 266.4 164.544959 
L 258.84 177.639263 
M 266.4 164.544959 
L 281.52 164.544959 
M 296.723647 243.161429 
L 289.08 256.205088 
M 296.723647 243.161429 
L 281.52 243.110784 
M 296.723647 243.161429 
L 289.08 230.016479 
M 296.723647 243.161429 
L 304.422082 256.343719 
M 296.723647 243.161429 
L 304.191205 230.021557 
M 296.723647 243.161429 
L 312.048595 243.270945 
M 296.630995 216.927374 
L 289.08 230.016479 
M 296.630995 216.927374 
L 304.2 203.827871 
M 296.630995 216.927374 
L 311.714768 216.94829 
M 296.630995 216.927374 
L 304.191205 230.021557 
M 296.630995 216.927374 
L 289.08 203.827871 
M 296.630995 216.927374 
L 281.52 216.922175 
M 228.6 151.450655 
L 236.16 164.544959 
M 228.6 151.450655 
L 221.04 164.544959 
M 228.6 151.450655 
L 243.72 151.450655 
M 228.6 151.450655 
L 236.16 138.356351 
M 213.48 151.450655 
L 221.04 164.544959 
M 213.48 151.450655 
L 205.92 164.544959 
M 213.48 151.450655 
L 198.36 151.450655 
M 213.48 151.450655 
L 205.92 138.356351 
M 213.48 151.450655 
L 228.6 151.450655 
M 266.4 269.299392 
L 273.96 282.393696 
M 266.4 269.299392 
L 281.52 269.299392 
M 266.4 269.299392 
L 273.96 256.205088 
M 266.4 269.299392 
L 258.84 256.205088 
M 266.4 269.299392 
L 258.84 282.393696 
M 266.4 269.299392 
L 251.28 269.299392 
M 221.044835 138.359142 
L 236.16 138.356351 
M 221.044835 138.359142 
L 205.92 138.356351 
M 221.044835 138.359142 
L 213.506508 125.277351 
M 221.044835 138.359142 
L 228.6025 125.26349 
M 221.044835 138.359142 
L 228.6 151.450655 
M 221.044835 138.359142 
L 213.48 151.450655 
M 160.259336 217.149772 
L 168.12 203.827871 
M 160.259336 217.149772 
L 175.68 216.922175 
M 160.259336 217.149772 
L 168.12 230.016479 
M 160.259336 217.149772 
L 153 203.827871 
M 160.259336 217.149772 
L 153.414085 230.255552 
M 160.259336 217.149772 
L 143.221933 218.048685 
M 236.16 216.922175 
L 251.28 216.922175 
M 236.16 216.922175 
L 243.72 203.827871 
M 236.16 216.922175 
L 228.6 203.827871 
M 236.16 216.922175 
L 243.72 230.016479 
M 190.8 243.110784 
L 183.24 230.016479 
M 190.8 243.110784 
L 198.36 230.016479 
M 190.8 243.110784 
L 175.68 243.110784 
M 190.8 243.110784 
L 205.92 243.110784 
M 190.8 243.110784 
L 198.36 256.205088 
M 221.120172 87.090677 
L 213.660283 99.177525 
M 221.120172 87.090677 
L 206.108255 86.087823 
M 221.120172 87.090677 
L 228.634479 99.093345 
M 221.120172 87.090677 
L 236.166807 86.802275 
M 221.120172 87.090677 
L 213.551208 73.582999 
M 273.961615 125.270202 
L 266.4 138.356351 
M 273.961615 125.270202 
L 281.52 138.356351 
M 273.961615 125.270202 
L 258.84 125.262047 
M 273.961615 125.270202 
L 289.08 125.262047 
M 273.961615 125.270202 
L 266.401478 112.216868 
M 273.961615 125.270202 
L 281.528212 112.167552 
M 198.36 203.827871 
L 190.8 190.733567 
M 198.36 203.827871 
L 183.24 203.827871 
M 198.36 203.827871 
L 190.8 216.922175 
M 198.36 203.827871 
L 205.92 216.922175 
M 198.36 203.827871 
L 205.92 190.733567 
M 221.04 216.922175 
L 228.6 203.827871 
M 221.04 216.922175 
L 205.92 216.922175 
M 221.04 216.922175 
L 213.48 230.016479 
M 221.04 216.922175 
L 236.16 216.922175 
M 228.6 282.393696 
L 221.04 295.488 
M 228.6 282.393696 
L 236.16 295.488 
M 228.6 282.393696 
L 243.72 282.393696 
M 228.6 282.393696 
L 221.04 269.299392 
M 228.6 282.393696 
L 213.48 282.393696 
M 311.811631 138.429805 
L 296.64 138.356351 
M 311.811631 138.429805 
L 304.2 151.450655 
M 311.811631 138.429805 
L 304.2 125.262047 
M 311.811631 138.429805 
L 319.32 151.450655 
M 311.811631 138.429805 
L 319.629788 125.70277 
M 128.251288 91.384717 
L 115.2 83.808 
M 128.251288 91.384717 
L 115.2 98.928 
M 128.251288 91.384717 
L 128.294304 106.488 
M 128.251288 91.384717 
L 128.003193 76.312069 
M 128.251288 91.384717 
L 140.97151 99.139165 
M 205.92 269.299392 
L 198.36 282.393696 
M 205.92 269.299392 
L 213.48 256.205088 
M 205.92 269.299392 
L 198.36 256.205088 
M 205.92 269.299392 
L 221.04 269.299392 
M 205.92 269.299392 
L 213.48 282.393696 
M 205.92 269.299392 
L 190.8 269.299392 
M 213.48 203.827871 
L 228.6 203.827871 
M 213.48 203.827871 
L 205.92 216.922175 
M 213.48 203.827871 
L 221.04 190.733567 
M 213.48 203.827871 
L 205.92 190.733567 
M 213.48 203.827871 
L 198.36 203.827871 
M 213.48 203.827871 
L 221.04 216.922175 
M 236.16 243.110784 
L 243.72 230.016479 
M 236.16 243.110784 
L 221.04 243.110784 
M 236.16 243.110784 
L 228.6 256.205088 
M 236.16 243.110784 
L 251.28 243.110784 
M 228.6 230.016479 
L 243.72 230.016479 
M 228.6 230.016479 
L 213.48 230.016479 
M 228.6 230.016479 
L 221.04 243.110784 
M 228.6 230.016479 
L 236.16 216.922175 
M 228.6 230.016479 
L 221.04 216.922175 
M 228.6 230.016479 
L 236.16 243.110784 
M 243.72 256.205088 
L 258.84 256.205088 
M 243.72 256.205088 
L 228.6 256.205088 
M 243.72 256.205088 
L 251.28 269.299392 
M 243.72 256.205088 
L 251.28 243.110784 
M 243.72 256.205088 
L 236.16 243.110784 
M 146.480495 243.050298 
L 160.56 243.110784 
M 146.480495 243.050298 
L 153.438576 255.951876 
M 146.480495 243.050298 
L 153.414085 230.255552 
M 146.480495 243.050298 
L 130.594345 242.84685 
M 326.709229 138.564775 
L 319.32 151.450655 
M 326.709229 138.564775 
L 319.629788 125.70277 
M 326.709229 138.564775 
L 334.44 151.450655 
M 326.709229 138.564775 
L 342.738358 137.584273 
M 326.709229 138.564775 
L 311.811631 138.429805 
M 142.320735 81.881634 
L 153 66.662304 
M 142.320735 81.881634 
L 128.003193 76.312069 
M 142.320735 81.881634 
L 140.97151 99.139165 
M 142.320735 81.881634 
L 128.251288 91.384717 
M 143.154714 268.018563 
L 128.751997 258.999292 
M 143.154714 268.018563 
L 137.944069 282.684807 
M 143.154714 268.018563 
L 153.438576 255.951876 
M 143.154714 268.018563 
L 153.010678 282.442214 
M 236.16 269.299392 
L 243.72 282.393696 
M 236.16 269.299392 
L 228.6 256.205088 
M 236.16 269.299392 
L 221.04 269.299392 
M 236.16 269.299392 
L 251.28 269.299392 
M 236.16 269.299392 
L 228.6 282.393696 
M 236.16 269.299392 
L 243.72 256.205088 
M 183.24 256.205088 
L 175.68 243.110784 
M 183.24 256.205088 
L 198.36 256.205088 
M 183.24 256.205088 
L 168.12 256.205088 
M 183.24 256.205088 
L 190.8 269.299392 
M 183.24 256.205088 
L 190.8 243.110784 
M 175.68 269.299392 
L 168.12 282.393696 
M 175.68 269.299392 
L 168.12 256.205088 
M 175.68 269.299392 
L 183.24 282.393696 
M 175.68 269.299392 
L 190.8 269.299392 
M 175.68 269.299392 
L 183.24 256.205088 
M 160.253995 269.051805 
L 168.12 282.393696 
M 160.253995 269.051805 
L 168.12 256.205088 
M 160.253995 269.051805 
L 153.438576 255.951876 
M 160.253995 269.051805 
L 153.010678 282.442214 
M 160.253995 269.051805 
L 143.154714 268.018563 
M 160.253995 269.051805 
L 175.68 269.299392 
M 342.91498 76.697759 
L 357.12 83.808 
M 342.91498 76.697759 
L 357.12 68.688 
M 342.91498 76.697759 
L 343.964026 91.774785 
M 342.91498 76.697759 
L 334.336277 65.172726 
M 342.91498 76.697759 
L 330.192041 87.227932 
M 137.862385 66.141756 
L 145.44 53.568 
M 137.862385 66.141756 
L 130.32 53.568 
M 137.862385 66.141756 
L 153 66.662304 
M 137.862385 66.141756 
L 128.003193 76.312069 
M 137.862385 66.141756 
L 142.320735 81.881634 
M 127.785515 272.940209 
L 115.2 265.248 
M 127.785515 272.940209 
L 115.2 280.368 
M 127.785515 272.940209 
L 128.751997 258.999292 
M 127.785515 272.940209 
L 137.944069 282.684807 
M 127.785515 272.940209 
L 143.154714 268.018563 
M 157.154984 80.586208 
L 153 66.662304 
M 157.154984 80.586208 
L 174.02311 81.624678 
M 157.154984 80.586208 
L 164.287966 92.079736 
M 157.154984 80.586208 
L 167.32642 67.379605 
M 157.154984 80.586208 
L 142.320735 81.881634 
M 334.000509 283.050057 
L 326.88 295.488 
M 334.000509 283.050057 
L 342 295.488 
M 334.000509 283.050057 
L 319.635481 282.54346 
M 334.000509 283.050057 
L 343.876671 270.891744 
M 334.000509 283.050057 
L 328.385149 269.708476 
M 127.960246 212.012032 
L 115.2 204.768 
M 127.960246 212.012032 
L 115.2 219.888 
M 127.960246 212.012032 
L 128.69245 226.545144 
M 127.960246 212.012032 
L 138.866601 203.905362 
M 127.960246 212.012032 
L 143.221933 218.048685 
M 332.643513 204.703077 
L 342.755987 214.431236 
M 332.643513 204.703077 
L 319.048608 203.984559 
M 332.643513 204.703077 
L 329.04113 190.40328 
M 332.643513 204.703077 
L 326.88 216.922175 
M 332.643513 204.703077 
L 344.025696 197.208 
M 333.430852 99.503169 
L 343.964026 91.774785 
M 333.430852 99.503169 
L 319.32 99.073438 
M 333.430852 99.503169 
L 330.192041 87.227932 
M 333.430852 99.503169 
L 344.370154 106.4892 
M 333.430852 99.503169 
L 329.308039 112.950491 
M 127.717531 196.296885 
L 115.2 189.648 
M 127.717531 196.296885 
L 115.2 204.768 
M 127.717531 196.296885 
L 128.520791 182.017113 
M 127.717531 196.296885 
L 142.899357 189.993153 
M 127.717531 196.296885 
L 138.866601 203.905362 
M 127.717531 196.296885 
L 127.960246 212.012032 
M 332.349882 176.119306 
L 342.702639 165.752741 
M 332.349882 176.119306 
L 329.04113 190.40328 
M 332.349882 176.119306 
L 326.88 164.544959 
M 332.349882 176.119306 
L 319.32 177.639263 
M 332.349882 176.119306 
L 343.805642 182.256285 
M 139.993998 175.937775 
L 128.520791 182.017113 
M 139.993998 175.937775 
L 145.79729 164.338677 
M 139.993998 175.937775 
L 142.899357 189.993153 
M 139.993998 175.937775 
L 129.752552 165.700671 
M 139.993998 175.937775 
L 153 177.639263 
M 140.004406 126.770492 
L 129.614599 137.641357 
M 140.004406 126.770492 
L 145.736928 138.474039 
M 140.004406 126.770492 
L 153.244104 123.494923 
M 140.004406 126.770492 
L 128.294304 121.608 
M 140.004406 126.770492 
L 141.388608 114.048 
M 332.315594 126.770492 
L 344.256396 121.208415 
M 332.315594 126.770492 
L 319.629788 125.70277 
M 332.315594 126.770492 
L 342.738358 137.584273 
M 332.315594 126.770492 
L 329.308039 112.950491 
M 332.315594 126.770492 
L 326.709229 138.564775 
M 140.447476 231.949765 
L 128.69245 226.545144 
M 140.447476 231.949765 
L 153.414085 230.255552 
M 140.447476 231.949765 
L 143.221933 218.048685 
M 140.447476 231.949765 
L 130.594345 242.84685 
M 140.447476 231.949765 
L 146.480495 243.050298 
M 346.929299 227.667762 
L 357.12 235.008 
M 346.929299 227.667762 
L 357.12 219.888 
M 346.929299 227.667762 
L 342.755987 214.431236 
M 346.929299 227.667762 
L 343.726711 242.760915 
M 346.929299 227.667762 
L 334.417348 229.373035 
M 347.036519 151.848 
L 357.12 159.408 
M 347.036519 151.848 
L 357.12 144.288 
M 347.036519 151.848 
L 342.702639 165.752741 
M 347.036519 151.848 
L 334.44 151.450655 
M 347.036519 151.848 
L 342.738358 137.584273 
M 125.283481 151.848 
L 115.2 144.288 
M 125.283481 151.848 
L 115.2 159.408 
M 125.283481 151.848 
L 129.614599 137.641357 
M 125.283481 151.848 
L 138.242562 151.363333 
M 125.283481 151.848 
L 129.752552 165.700671 
M 140.491863 254.034073 
L 128.751997 258.999292 
M 140.491863 254.034073 
L 153.438576 255.951876 
M 140.491863 254.034073 
L 130.594345 242.84685 
M 140.491863 254.034073 
L 146.480495 243.050298 
M 140.491863 254.034073 
L 143.154714 268.018563 
M 151.826114 91.896596 
L 164.287966 92.079736 
M 151.826114 91.896596 
L 140.97151 99.139165 
M 151.826114 91.896596 
L 154.395374 105.796236 
M 151.826114 91.896596 
L 142.320735 81.881634 
M 151.826114 91.896596 
L 157.154984 80.586208 
M 166.945323 104.134005 
L 176.977295 111.458795 
M 166.945323 104.134005 
L 176.650106 96.269724 
M 166.945323 104.134005 
L 164.287966 92.079736 
M 166.945323 104.134005 
L 154.395374 105.796236 
M 347.765249 257.688 
L 357.12 265.248 
M 347.765249 257.688 
L 357.12 250.128 
M 347.765249 257.688 
L 343.726711 242.760915 
M 347.765249 257.688 
L 343.876671 270.891744 
M 347.765249 257.688 
L 335.620895 256.390424 
M 346.051392 284.419392 
L 357.12 295.488 
M 346.051392 284.419392 
L 342 295.488 
M 346.051392 284.419392 
L 357.12 280.368 
M 346.051392 284.419392 
L 343.876671 270.891744 
M 346.051392 284.419392 
L 334.000509 283.050057 
M 126.268608 64.636608 
L 115.2 53.568 
M 126.268608 64.636608 
L 130.32 53.568 
M 126.268608 64.636608 
L 115.2 68.688 
M 126.268608 64.636608 
L 128.003193 76.312069 
M 126.268608 64.636608 
L 137.862385 66.141756 
M 126.268608 284.419392 
L 115.2 295.488 
M 126.268608 284.419392 
L 130.32 295.488 
M 126.268608 284.419392 
L 115.2 280.368 
M 126.268608 284.419392 
L 137.944069 282.684807 
M 126.268608 284.419392 
L 127.785515 272.940209 
M 346.051392 64.636608 
L 357.12 53.568 
M 346.051392 64.636608 
L 357.12 68.688 
M 346.051392 64.636608 
L 342 53.568 
M 346.051392 64.636608 
L 334.336277 65.172726 
M 346.051392 64.636608 
L 342.91498 76.697759 
M 164.049661 114.043258 
L 176.977295 111.458795 
M 164.049661 114.043258 
L 153.244104 123.494923 
M 164.049661 114.043258 
L 154.395374 105.796236 
M 164.049661 114.043258 
L 168.686212 125.332333 
M 164.049661 114.043258 
L 166.945323 104.134005 
M 213.48 61.747042 
L 221.04 53.568 
M 213.48 61.747042 
L 205.92 53.568 
M 213.48 61.747042 
L 228.6 66.662304 
M 213.48 61.747042 
L 213.551208 73.582999 
M 228.127933 77.899933 
L 228.6 66.662304 
M 228.127933 77.899933 
L 236.166807 86.802275 
M 228.127933 77.899933 
L 213.551208 73.582999 
M 228.127933 77.899933 
L 241.201476 75.361411 
M 228.127933 77.899933 
L 221.120172 87.090677 
M 200.44803 63.543711 
L 205.92 53.568 
M 200.44803 63.543711 
L 190.8 53.568 
M 200.44803 63.543711 
L 185.278041 68.050677 
M 200.44803 63.543711 
L 198.670204 75.057555 
M 200.44803 63.543711 
L 213.551208 73.582999 
M 200.44803 63.543711 
L 213.48 61.747042 
M 244.760974 62.95538 
L 251.28 53.568 
M 244.760974 62.95538 
L 236.16 53.568 
M 244.760974 62.95538 
L 228.6 66.662304 
M 244.760974 62.95538 
L 241.201476 75.361411 
M 244.760974 62.95538 
L 258.48038 73.785554 
M 258.889661 61.878531 
L 266.4 53.568 
M 258.889661 61.878531 
L 251.28 53.568 
M 258.889661 61.878531 
L 273.96 66.662304 
M 258.889661 61.878531 
L 258.48038 73.785554 
M 258.889661 61.878531 
L 244.760974 62.95538 
M 288.721613 62.284281 
L 296.64 53.568 
M 288.721613 62.284281 
L 281.52 53.568 
M 288.721613 62.284281 
L 273.96 66.662304 
M 288.721613 62.284281 
L 302.161959 68.050677 
M 288.721613 62.284281 
L 286.200973 74.257147 
M 273.309993 77.636147 
L 273.96 66.662304 
M 273.309993 77.636147 
L 281.509479 86.566669 
M 273.309993 77.636147 
L 266.399134 86.909059 
M 273.309993 77.636147 
L 286.200973 74.257147 
M 273.309993 77.636147 
L 258.48038 73.785554 
M 327.563291 75.00029 
L 334.336277 65.172726 
M 327.563291 75.00029 
L 313.272842 81.842399 
M 327.563291 75.00029 
L 330.192041 87.227932 
M 327.563291 75.00029 
L 319.287262 66.160219 
M 327.563291 75.00029 
L 342.91498 76.697759 
M 187.615784 101.63414 
L 191.594718 112.626573 
M 187.615784 101.63414 
L 176.977295 111.458795 
M 187.615784 101.63414 
L 199.309247 99.621486 
M 187.615784 101.63414 
L 190.124725 86.517404 
M 187.615784 101.63414 
L 176.650106 96.269724 
L 176.650106 96.269724 
" style="fill:none;stroke:#1f77b4;stroke-linecap:square;stroke-width:1.5;"/>
   </g>
   <g id="matplotlib.axis_1">
    <g id="xtick_1">
     <g id="line2d_2">
      <defs>
       <path d="M 0 0 
L 0 3.5 
" id="m71757760e5" style="stroke:#000000;stroke-width:0.8;"/>
      </defs>
      <g>
       <use style="stroke:#000000;stroke-width:0.8;" x="66.816" xlink:href="#m71757760e5" y="307.584"/>
      </g>
     </g>
     <g id="text_1">
      <!-- −0.2 -->
      <g transform="translate(54.674594 322.182437)scale(0.1 -0.1)">
       <defs>
        <path d="M 678 2272 
L 4684 2272 
L 4684 1741 
L 678 1741 
L 678 2272 
z
" id="DejaVuSans-2212" transform="scale(0.015625)"/>
        <path d="M 2034 4250 
Q 1547 4250 1301 3770 
Q 1056 3291 1056 2328 
Q 1056 1369 1301 889 
Q 1547 409 2034 409 
Q 2525 409 2770 889 
Q 3016 1369 3016 2328 
Q 3016 3291 2770 3770 
Q 2525 4250 2034 4250 
z
M 2034 4750 
Q 2819 4750 3233 4129 
Q 3647 3509 3647 2328 
Q 3647 1150 3233 529 
Q 2819 -91 2034 -91 
Q 1250 -91 836 529 
Q 422 1150 422 2328 
Q 422 3509 836 4129 
Q 1250 4750 2034 4750 
z
" id="DejaVuSans-30" transform="scale(0.015625)"/>
        <path d="M 684 794 
L 1344 794 
L 1344 0 
L 684 0 
L 684 794 
z
" id="DejaVuSans-2e" transform="scale(0.015625)"/>
        <path d="M 1228 531 
L 3431 531 
L 3431 0 
L 469 0 
L 469 531 
Q 828 903 1448 1529 
Q 2069 2156 2228 2338 
Q 2531 2678 2651 2914 
Q 2772 3150 2772 3378 
Q 2772 3750 2511 3984 
Q 2250 4219 1831 4219 
Q 1534 4219 1204 4116 
Q 875 4013 500 3803 
L 500 4441 
Q 881 4594 1212 4672 
Q 1544 4750 1819 4750 
Q 2544 4750 2975 4387 
Q 3406 4025 3406 3419 
Q 3406 3131 3298 2873 
Q 3191 2616 2906 2266 
Q 2828 2175 2409 1742 
Q 1991 1309 1228 531 
z
" id="DejaVuSans-32" transform="scale(0.015625)"/>
       </defs>
       <use xlink:href="#DejaVuSans-2212"/>
       <use x="83.789062" xlink:href="#DejaVuSans-30"/>
       <use x="147.412109" xlink:href="#DejaVuSans-2e"/>
       <use x="179.199219" xlink:href="#DejaVuSans-32"/>
      </g>
     </g>
    </g>
    <g id="xtick_2">
     <g id="line2d_3">
      <g>
       <use style="stroke:#000000;stroke-width:0.8;" x="115.2" xlink:href="#m71757760e5" y="307.584"/>
      </g>
     </g>
     <g id="text_2">
      <!-- 0.0 -->
      <g transform="translate(107.248438 322.182437)scale(0.1 -0.1)">
       <use xlink:href="#DejaVuSans-30"/>
       <use x="63.623047" xlink:href="#DejaVuSans-2e"/>
       <use x="95.410156" xlink:href="#DejaVuSans-30"/>
      </g>
     </g>
    </g>
    <g id="xtick_3">
     <g id="line2d_4">
      <g>
       <use style="stroke:#000000;stroke-width:0.8;" x="163.584" xlink:href="#m71757760e5" y="307.584"/>
      </g>
     </g>
     <g id="text_3">
      <!-- 0.2 -->
      <g transform="translate(155.632438 322.182437)scale(0.1 -0.1)">
       <use xlink:href="#DejaVuSans-30"/>
       <use x="63.623047" xlink:href="#DejaVuSans-2e"/>
       <use x="95.410156" xlink:href="#DejaVuSans-32"/>
      </g>
     </g>
    </g>
    <g id="xtick_4">
     <g id="line2d_5">
      <g>
       <use style="stroke:#000000;stroke-width:0.8;" x="211.968" xlink:href="#m71757760e5" y="307.584"/>
      </g>
     </g>
     <g id="text_4">
      <!-- 0.4 -->
      <g transform="translate(204.016438 322.182437)scale(0.1 -0.1)">
       <defs>
        <path d="M 2419 4116 
L 825 1625 
L 2419 1625 
L 2419 4116 
z
M 2253 4666 
L 3047 4666 
L 3047 1625 
L 3713 1625 
L 3713 1100 
L 3047 1100 
L 3047 0 
L 2419 0 
L 2419 1100 
L 313 1100 
L 313 1709 
L 2253 4666 
z
" id="DejaVuSans-34" transform="scale(0.015625)"/>
       </defs>
       <use xlink:href="#DejaVuSans-30"/>
       <use x="63.623047" xlink:href="#DejaVuSans-2e"/>
       <use x="95.410156" xlink:href="#DejaVuSans-34"/>
      </g>
     </g>
    </g>
    <g id="xtick_5">
     <g id="line2d_6">
      <g>
       <use style="stroke:#000000;stroke-width:0.8;" x="260.352" xlink:href="#m71757760e5" y="307.584"/>
      </g>
     </g>
     <g id="text_5">
      <!-- 0.6 -->
      <g transform="translate(252.400437 322.182437)scale(0.1 -0.1)">
       <defs>
        <path d="M 2113 2584 
Q 1688 2584 1439 2293 
Q 1191 2003 1191 1497 
Q 1191 994 1439 701 
Q 1688 409 2113 409 
Q 2538 409 2786 701 
Q 3034 994 3034 1497 
Q 3034 2003 2786 2293 
Q 2538 2584 2113 2584 
z
M 3366 4563 
L 3366 3988 
Q 3128 4100 2886 4159 
Q 2644 4219 2406 4219 
Q 1781 4219 1451 3797 
Q 1122 3375 1075 2522 
Q 1259 2794 1537 2939 
Q 1816 3084 2150 3084 
Q 2853 3084 3261 2657 
Q 3669 2231 3669 1497 
Q 3669 778 3244 343 
Q 2819 -91 2113 -91 
Q 1303 -91 875 529 
Q 447 1150 447 2328 
Q 447 3434 972 4092 
Q 1497 4750 2381 4750 
Q 2619 4750 2861 4703 
Q 3103 4656 3366 4563 
z
" id="DejaVuSans-36" transform="scale(0.015625)"/>
       </defs>
       <use xlink:href="#DejaVuSans-30"/>
       <use x="63.623047" xlink:href="#DejaVuSans-2e"/>
       <use x="95.410156" xlink:href="#DejaVuSans-36"/>
      </g>
     </g>
    </g>
    <g id="xtick_6">
     <g id="line2d_7">
      <g>
       <use style="stroke:#000000;stroke-width:0.8;" x="308.736" xlink:href="#m71757760e5" y="307.584"/>
      </g>
     </g>
     <g id="text_6">
      <!-- 0.8 -->
      <g transform="translate(300.784437 322.182437)scale(0.1 -0.1)">
       <defs>
        <path d="M 2034 2216 
Q 1584 2216 1326 1975 
Q 1069 1734 1069 1313 
Q 1069 891 1326 650 
Q 1584 409 2034 409 
Q 2484 409 2743 651 
Q 3003 894 3003 1313 
Q 3003 1734 2745 1975 
Q 2488 2216 2034 2216 
z
M 1403 2484 
Q 997 2584 770 2862 
Q 544 3141 544 3541 
Q 544 4100 942 4425 
Q 1341 4750 2034 4750 
Q 2731 4750 3128 4425 
Q 3525 4100 3525 3541 
Q 3525 3141 3298 2862 
Q 3072 2584 2669 2484 
Q 3125 2378 3379 2068 
Q 3634 1759 3634 1313 
Q 3634 634 3220 271 
Q 2806 -91 2034 -91 
Q 1263 -91 848 271 
Q 434 634 434 1313 
Q 434 1759 690 2068 
Q 947 2378 1403 2484 
z
M 1172 3481 
Q 1172 3119 1398 2916 
Q 1625 2713 2034 2713 
Q 2441 2713 2670 2916 
Q 2900 3119 2900 3481 
Q 2900 3844 2670 4047 
Q 2441 4250 2034 4250 
Q 1625 4250 1398 4047 
Q 1172 3844 1172 3481 
z
" id="DejaVuSans-38" transform="scale(0.015625)"/>
       </defs>
       <use xlink:href="#DejaVuSans-30"/>
       <use x="63.623047" xlink:href="#DejaVuSans-2e"/>
       <use x="95.410156" xlink:href="#DejaVuSans-38"/>
      </g>
     </g>
    </g>
    <g id="xtick_7">
     <g id="line2d_8">
      <g>
       <use style="stroke:#000000;stroke-width:0.8;" x="357.12" xlink:href="#m71757760e5" y="307.584"/>
      </g>
     </g>
     <g id="text_7">
      <!-- 1.0 -->
      <g transform="translate(349.168437 322.182437)scale(0.1 -0.1)">
       <defs>
        <path d="M 794 531 
L 1825 531 
L 1825 4091 
L 703 3866 
L 703 4441 
L 1819 4666 
L 2450 4666 
L 2450 531 
L 3481 531 
L 3481 0 
L 794 0 
L 794 531 
z
" id="DejaVuSans-31" transform="scale(0.015625)"/>
       </defs>
       <use xlink:href="#DejaVuSans-31"/>
       <use x="63.623047" xlink:href="#DejaVuSans-2e"/>
       <use x="95.410156" xlink:href="#DejaVuSans-30"/>
      </g>
     </g>
    </g>
    <g id="xtick_8">
     <g id="line2d_9">
      <g>
       <use style="stroke:#000000;stroke-width:0.8;" x="405.504" xlink:href="#m71757760e5" y="307.584"/>
      </g>
     </g>
     <g id="text_8">
      <!-- 1.2 -->
      <g transform="translate(397.552437 322.182437)scale(0.1 -0.1)">
       <use xlink:href="#DejaVuSans-31"/>
       <use x="63.623047" xlink:href="#DejaVuSans-2e"/>
       <use x="95.410156" xlink:href="#DejaVuSans-32"/>
      </g>
     </g>
    </g>
    <g id="text_9">
     <!-- x -->
     <g transform="translate(233.200625 335.860562)scale(0.1 -0.1)">
      <defs>
       <path d="M 3513 3500 
L 2247 1797 
L 3578 0 
L 2900 0 
L 1881 1375 
L 863 0 
L 184 0 
L 1544 1831 
L 300 3500 
L 978 3500 
L 1906 2253 
L 2834 3500 
L 3513 3500 
z
" id="DejaVuSans-78" transform="scale(0.015625)"/>
      </defs>
      <use xlink:href="#DejaVuSans-78"/>
     </g>
    </g>
   </g>
   <g id="matplotlib.axis_2">
    <g id="ytick_1">
     <g id="line2d_10">
      <defs>
       <path d="M 0 0 
L -3.5 0 
" id="m2086bd8f62" style="stroke:#000000;stroke-width:0.8;"/>
      </defs>
      <g>
       <use style="stroke:#000000;stroke-width:0.8;" x="57.6" xlink:href="#m2086bd8f62" y="295.488"/>
      </g>
     </g>
     <g id="text_10">
      <!-- 0.0 -->
      <g transform="translate(34.696875 299.287219)scale(0.1 -0.1)">
       <use xlink:href="#DejaVuSans-30"/>
       <use x="63.623047" xlink:href="#DejaVuSans-2e"/>
       <use x="95.410156" xlink:href="#DejaVuSans-30"/>
      </g>
     </g>
    </g>
    <g id="ytick_2">
     <g id="line2d_11">
      <g>
       <use style="stroke:#000000;stroke-width:0.8;" x="57.6" xlink:href="#m2086bd8f62" y="247.104"/>
      </g>
     </g>
     <g id="text_11">
      <!-- 0.2 -->
      <g transform="translate(34.696875 250.903219)scale(0.1 -0.1)">
       <use xlink:href="#DejaVuSans-30"/>
       <use x="63.623047" xlink:href="#DejaVuSans-2e"/>
       <use x="95.410156" xlink:href="#DejaVuSans-32"/>
      </g>
     </g>
    </g>
    <g id="ytick_3">
     <g id="line2d_12">
      <g>
       <use style="stroke:#000000;stroke-width:0.8;" x="57.6" xlink:href="#m2086bd8f62" y="198.72"/>
      </g>
     </g>
     <g id="text_12">
      <!-- 0.4 -->
      <g transform="translate(34.696875 202.519219)scale(0.1 -0.1)">
       <use xlink:href="#DejaVuSans-30"/>
       <use x="63.623047" xlink:href="#DejaVuSans-2e"/>
       <use x="95.410156" xlink:href="#DejaVuSans-34"/>
      </g>
     </g>
    </g>
    <g id="ytick_4">
     <g id="line2d_13">
      <g>
       <use style="stroke:#000000;stroke-width:0.8;" x="57.6" xlink:href="#m2086bd8f62" y="150.336"/>
      </g>
     </g>
     <g id="text_13">
      <!-- 0.6 -->
      <g transform="translate(34.696875 154.135219)scale(0.1 -0.1)">
       <use xlink:href="#DejaVuSans-30"/>
       <use x="63.623047" xlink:href="#DejaVuSans-2e"/>
       <use x="95.410156" xlink:href="#DejaVuSans-36"/>
      </g>
     </g>
    </g>
    <g id="ytick_5">
     <g id="line2d_14">
      <g>
       <use style="stroke:#000000;stroke-width:0.8;" x="57.6" xlink:href="#m2086bd8f62" y="101.952"/>
      </g>
     </g>
     <g id="text_14">
      <!-- 0.8 -->
      <g transform="translate(34.696875 105.751219)scale(0.1 -0.1)">
       <use xlink:href="#DejaVuSans-30"/>
       <use x="63.623047" xlink:href="#DejaVuSans-2e"/>
       <use x="95.410156" xlink:href="#DejaVuSans-38"/>
      </g>
     </g>
    </g>
    <g id="ytick_6">
     <g id="line2d_15">
      <g>
       <use style="stroke:#000000;stroke-width:0.8;" x="57.6" xlink:href="#m2086bd8f62" y="53.568"/>
      </g>
     </g>
     <g id="text_15">
      <!-- 1.0 -->
      <g transform="translate(34.696875 57.367219)scale(0.1 -0.1)">
       <use xlink:href="#DejaVuSans-31"/>
       <use x="63.623047" xlink:href="#DejaVuSans-2e"/>
       <use x="95.410156" xlink:href="#DejaVuSans-30"/>
      </g>
     </g>
    </g>
    <g id="text_16">
     <!-- y -->
     <g transform="translate(28.617188 177.487375)rotate(-90)scale(0.1 -0.1)">
      <defs>
       <path d="M 2059 -325 
Q 1816 -950 1584 -1140 
Q 1353 -1331 966 -1331 
L 506 -1331 
L 506 -850 
L 844 -850 
Q 1081 -850 1212 -737 
Q 1344 -625 1503 -206 
L 1606 56 
L 191 3500 
L 800 3500 
L 1894 763 
L 2988 3500 
L 3597 3500 
L 2059 -325 
z
" id="DejaVuSans-79" transform="scale(0.015625)"/>
      </defs>
      <use xlink:href="#DejaVuSans-79"/>
     </g>
    </g>
   </g>
   <g id="line2d_16"/>
   <g id="patch_3">
    <path d="M 57.6 307.584 
L 57.6 41.472 
" style="fill:none;stroke:#000000;stroke-linecap:square;stroke-linejoin:miter;stroke-width:0.8;"/>
   </g>
   <g id="patch_4">
    <path d="M 414.72 307.584 
L 414.72 41.472 
" style="fill:none;stroke:#000000;stroke-linecap:square;stroke-linejoin:miter;stroke-width:0.8;"/>
   </g>
   <g id="patch_5">
    <path d="M 57.6 307.584 
L 414.72 307.584 
" style="fill:none;stroke:#000000;stroke-linecap:square;stroke-linejoin:miter;stroke-width:0.8;"/>
   </g>
   <g id="patch_6">
    <path d="M 57.6 41.472 
L 414.72 41.472 
" style="fill:none;stroke:#000000;stroke-linecap:square;stroke-linejoin:miter;stroke-width:0.8;"/>
   </g>
   <g id="text_17">
    <!-- Mesh -->
    <g transform="translate(220.363125 35.472)scale(0.12 -0.12)">
     <defs>
      <path d="M 628 4666 
L 1569 4666 
L 2759 1491 
L 3956 4666 
L 4897 4666 
L 4897 0 
L 4281 0 
L 4281 4097 
L 3078 897 
L 2444 897 
L 1241 4097 
L 1241 0 
L 628 0 
L 628 4666 
z
" id="DejaVuSans-4d" transform="scale(0.015625)"/>
      <path d="M 3597 1894 
L 3597 1613 
L 953 1613 
Q 991 1019 1311 708 
Q 1631 397 2203 397 
Q 2534 397 2845 478 
Q 3156 559 3463 722 
L 3463 178 
Q 3153 47 2828 -22 
Q 2503 -91 2169 -91 
Q 1331 -91 842 396 
Q 353 884 353 1716 
Q 353 2575 817 3079 
Q 1281 3584 2069 3584 
Q 2775 3584 3186 3129 
Q 3597 2675 3597 1894 
z
M 3022 2063 
Q 3016 2534 2758 2815 
Q 2500 3097 2075 3097 
Q 1594 3097 1305 2825 
Q 1016 2553 972 2059 
L 3022 2063 
z
" id="DejaVuSans-65" transform="scale(0.015625)"/>
      <path d="M 2834 3397 
L 2834 2853 
Q 2591 2978 2328 3040 
Q 2066 3103 1784 3103 
Q 1356 3103 1142 2972 
Q 928 2841 928 2578 
Q 928 2378 1081 2264 
Q 1234 2150 1697 2047 
L 1894 2003 
Q 2506 1872 2764 1633 
Q 3022 1394 3022 966 
Q 3022 478 2636 193 
Q 2250 -91 1575 -91 
Q 1294 -91 989 -36 
Q 684 19 347 128 
L 347 722 
Q 666 556 975 473 
Q 1284 391 1588 391 
Q 1994 391 2212 530 
Q 2431 669 2431 922 
Q 2431 1156 2273 1281 
Q 2116 1406 1581 1522 
L 1381 1569 
Q 847 1681 609 1914 
Q 372 2147 372 2553 
Q 372 3047 722 3315 
Q 1072 3584 1716 3584 
Q 2034 3584 2315 3537 
Q 2597 3491 2834 3397 
z
" id="DejaVuSans-73" transform="scale(0.015625)"/>
      <path d="M 3513 2113 
L 3513 0 
L 2938 0 
L 2938 2094 
Q 2938 2591 2744 2837 
Q 2550 3084 2163 3084 
Q 1697 3084 1428 2787 
Q 1159 2491 1159 1978 
L 1159 0 
L 581 0 
L 581 4863 
L 1159 4863 
L 1159 2956 
Q 1366 3272 1645 3428 
Q 1925 3584 2291 3584 
Q 2894 3584 3203 3211 
Q 3513 2838 3513 2113 
z
" id="DejaVuSans-68" transform="scale(0.015625)"/>
     </defs>
     <use xlink:href="#DejaVuSans-4d"/>
     <use x="86.279297" xlink:href="#DejaVuSans-65"/>
     <use x="147.802734" xlink:href="#DejaVuSans-73"/>
     <use x="199.902344" xlink:href="#DejaVuSans-68"/>
    </g>
   </g>
  </g>
 </g>
 <defs>
  <clipPath id="pf77e86c5a6">
   <rect height="266.112" width="357.12" x="57.6" y="41.472"/>
  </clipPath>
 </defs>
</svg>
